<svg height="512" viewBox="0 0 512 512" width="512" xmlns="http://www.w3.org/2000/svg" xmlns:xlink="http://www.w3.org/1999/xlink"><linearGradient id="linear-gradient" gradientUnits="userSpaceOnUse" x1="-5.009" x2="513.173" y1="482.344" y2="-35.838"><stop offset="0" stop-color="#003f8a"/><stop offset=".518" stop-color="#00d7df"/><stop offset="1" stop-color="#006df0"/></linearGradient><linearGradient id="linear-gradient-2" x1="-19.676" x2="498.505" xlink:href="#linear-gradient" y1="467.676" y2="-50.505"/><linearGradient id="linear-gradient-3" x1="24.324" x2="542.505" xlink:href="#linear-gradient" y1="511.676" y2="-6.505"/><linearGradient id="linear-gradient-4" x1="28.324" x2="546.505" xlink:href="#linear-gradient" y1="515.676" y2="-2.505"/><linearGradient id="linear-gradient-5" x1="78.324" x2="596.505" xlink:href="#linear-gradient" y1="565.676" y2="47.495"/><linearGradient id="linear-gradient-6" x1="-11.676" x2="506.505" xlink:href="#linear-gradient" y1="475.676" y2="-42.505"/><linearGradient id="linear-gradient-7" x1="124.324" x2="642.505" xlink:href="#linear-gradient" y1="611.676" y2="93.495"/><linearGradient id="linear-gradient-8" x1="98.324" x2="616.505" xlink:href="#linear-gradient" y1="585.676" y2="67.495"/><linearGradient id="linear-gradient-9" x1="84.671" x2="602.852" xlink:href="#linear-gradient" y1="572.024" y2="53.842"/><linearGradient id="linear-gradient-10" x1="70.324" x2="588.505" xlink:href="#linear-gradient" y1="557.676" y2="39.495"/><linearGradient id="linear-gradient-11" x1="134.324" x2="652.505" xlink:href="#linear-gradient" y1="621.676" y2="103.495"/><g id="Book-2" data-name="Book"><path d="m136 288h168a8 8 0 0 0 6.86-12.116l-48-80a8 8 0 0 0 -13.72 0l-9.14 15.236-29.14-48.566a8 8 0 0 0 -13.72 0l-68 113.33a8 8 0 0 0 6.86 12.116zm120-72.45 33.87 56.45h-13.34l-27.2-45.332zm-52-33.331 53.87 89.781h-107.74z" fill="url(#linear-gradient)"/><path d="m292 184a28 28 0 1 0 -28-28 28.032 28.032 0 0 0 28 28zm0-40a12 12 0 1 1 -12 12 12.013 12.013 0 0 1 12-12z" fill="url(#linear-gradient-2)"/><path d="m136 320h176a8 8 0 0 0 0-16h-176a8 8 0 0 0 0 16z" fill="url(#linear-gradient-3)"/><path d="m136 344h144a8 8 0 0 0 0-16h-144a8 8 0 0 0 0 16z" fill="url(#linear-gradient-4)"/><path d="m312 344a8 8 0 0 0 0-16h-8a8 8 0 0 0 0 16z" fill="url(#linear-gradient-5)"/><path d="m352 8h-288a8 8 0 0 0 -8 8v480a8 8 0 0 0 8 8h288a8 8 0 0 0 8-8v-480a8 8 0 0 0 -8-8zm-8 16v432h-240v-432zm-272 0h16v432h-16zm272 464h-272v-16h272z" fill="url(#linear-gradient-6)"/><path d="m272 432a8 8 0 0 0 8 8h48a8 8 0 0 0 0-16h-48a8 8 0 0 0 -8 8z" fill="url(#linear-gradient-7)"/><path d="m256 424h-8a8 8 0 0 0 0 16h8a8 8 0 0 0 0-16z" fill="url(#linear-gradient-8)"/><path d="m416 8h-16a24.027 24.027 0 0 0 -24 24v416a7.994 7.994 0 0 0 .845 3.578l24 48a8 8 0 0 0 14.31 0l24-48a7.994 7.994 0 0 0 .845-3.578v-416a24.027 24.027 0 0 0 -24-24zm8 438.111-.944 1.889h-30.112l-.944-1.889v-6.111h32zm0-366.111h-32v-8h32zm-32 16h32v328h-32zm0-64a8.009 8.009 0 0 1 8-8h16a8.009 8.009 0 0 1 8 8v24h-32zm16 446.111-7.056-14.111h14.112z" fill="url(#linear-gradient-9)"/><path d="m408 112a8 8 0 0 0 -8 8v200a8 8 0 0 0 16 0v-200a8 8 0 0 0 -8-8z" fill="url(#linear-gradient-10)"/><path d="m408 336a8 8 0 0 0 -8 8v8a8 8 0 0 0 16 0v-8a8 8 0 0 0 -8-8z" fill="url(#linear-gradient-11)"/></g></svg>